# xmcd
#
# Track frame offsets: 
#        150
#        9789
#        21374
#        30278
#        43445
#        62554
#        77375
#        88321
#        101504
#        111259
#        124590
#        143045
#        155707
#
# Disc length: 2261 seconds
#
# Revision: 0
# Processed by: cddbd v1.5.2PL0 Copyright (c) Steve Scherf et al.
# Submitted via: ExactAudioCopy v1.0b1
#
DISCID=9e08d30d
DTITLE=Country Gazette - Out To Lunch
DYEAR=1976
DGENRE=Country
TTITLE0=Still Feeling Blue
TTITLE1=Sure Didn't Take Him Long
TTITLE2=Out To Lunch
TTITLE3=Melody For Baby
TTITLE4=Sing A Sad Song
TTITLE5=Sunny Side Of The Mountain
TTITLE6=Down Down Down
TTITLE7=Why You Been Gone So Long
TTITLE8=Forked Deer
TTITLE9=Time Left To Wander
TTITLE10=Last Thing On My Mind
TTITLE11=Uncle Cloony Played The Banjo
TTITLE12=Blue Light
EXTD=
EXTT0=
EXTT1=
EXTT2=
EXTT3=
EXTT4=
EXTT5=
EXTT6=
EXTT7=
EXTT8=
EXTT9=
EXTT10=
EXTT11=
EXTT12=
PLAYORDER=
